<svg xmlns="http://www.w3.org/2000/svg" enable-background="new 0 0 511.997 511.997" height="511.997" width="511.997"><rect id="backgroundrect" width="100%" height="100%" x="0" y="0" fill="none" stroke="none"/><g class="currentLayer" style=""><title>Layer 1</title><g id="svg_1" class="selected" fill-opacity="1" fill="#bd0760"><path d="m94.009 403.845-91.08 91.08c-3.905 3.905-3.905 10.237 0 14.143 3.905 3.905 10.237 3.905 14.143 0l91.08-91.08c3.905-3.905 3.905-10.237 0-14.143-3.906-3.905-10.238-3.905-14.143 0z" id="svg_2" fill="#bd0760"/><path d="m17.071 381.788 48.65-48.65c3.905-3.905 3.905-10.237 0-14.142s-10.237-3.905-14.142 0l-48.65 48.65c-3.905 3.905-3.905 10.237 0 14.142 3.905 3.905 10.237 3.905 14.142 0z" id="svg_3" fill="#bd0760"/><path d="m178.859 446.276-48.65 48.65c-3.905 3.905-3.906 10.237 0 14.142 3.904 3.904 10.236 3.907 14.142 0l48.65-48.65c3.905-3.905 3.906-10.237 0-14.142s-10.236-3.905-14.142 0z" id="svg_4" fill="#bd0760"/><circle cx="440.0010070800781" cy="367.99700927734375" r="10" id="svg_5" fill="#bd0760"/><path d="m463.371 341.838c4.645 2.986 10.832 1.643 13.82-3.002 54.128-84.174 45.778-198.992-29.629-274.4-86.151-86.15-225.446-85.675-311.123 0-85.463 85.464-86.363 224.758 0 311.123 76.215 76.214 191.18 83.144 274.401 29.628 4.646-2.987 5.99-9.174 3.002-13.82-2.987-4.646-9.175-5.99-13.82-3.002-28.643 18.419-61.461 29.124-95.499 31.235 1.157-18.74 4.904-37.061 11.193-54.688l18.286 7.574c5.112 2.118 10.957-.321 13.066-5.412 2.114-5.102-.309-10.952-5.412-13.066l-18.296-7.578c8.356-17.654 19.229-33.898 32.451-48.478l13.966 13.966c3.905 3.905 10.237 3.905 14.143 0 3.905-3.905 3.905-10.237 0-14.143l-13.966-13.966c14.579-13.222 30.822-24.094 48.478-32.451l7.578 18.296c2.108 5.086 7.947 7.531 13.066 5.412 5.103-2.114 7.525-7.963 5.412-13.066l-7.574-18.286c17.625-6.289 35.947-10.037 54.688-11.194-2.111 34.037-12.816 66.856-31.234 95.498-2.987 4.645-1.643 10.833 3.003 13.82zm-312.79-263.26c34.755-34.755 80.191-55.182 128.896-58.18-1.157 18.739-4.904 37.058-11.193 54.685l-18.286-7.574c-5.101-2.112-10.952.31-13.066 5.412s.309 10.952 5.412 13.066l18.296 7.578c-8.356 17.654-19.229 33.898-32.451 48.478l-13.966-13.966c-3.905-3.905-10.237-3.905-14.143 0-3.905 3.905-3.905 10.237 0 14.143l13.966 13.966c-14.579 13.222-30.822 24.094-48.478 32.451l-7.578-18.296c-2.114-5.103-7.962-7.525-13.066-5.412-5.103 2.114-7.525 7.963-5.412 13.066l7.574 18.286c-17.624 6.289-35.945 10.036-54.685 11.193 2.998-48.704 23.425-94.141 58.18-128.896zm270.948 127.992c-2.114-5.102-7.961-7.528-13.065-5.412-5.103 2.113-7.525 7.963-5.412 13.065l7.722 18.642c-20.077 9.391-38.501 21.722-54.97 36.792l-14.302-14.302c-3.905-3.905-10.237-3.905-14.143 0-3.905 3.905-3.905 10.237 0 14.143l14.302 14.302c-15.07 16.47-27.402 34.895-36.792 54.97l-18.642-7.722c-5.104-2.115-10.953.31-13.065 5.412-2.113 5.103.31 10.952 5.412 13.065l18.646 7.723c-7.295 20.15-11.566 41.13-12.747 62.599-50.581-1.834-97.834-22.375-133.891-58.432-36.057-36.058-56.594-83.294-58.431-133.892 21.47-1.18 42.45-5.453 62.598-12.747l7.724 18.646c2.114 5.104 7.966 7.525 13.065 5.412 5.103-2.113 7.525-7.963 5.412-13.065l-7.722-18.642c20.077-9.391 38.501-21.722 54.97-36.792l14.302 14.302c3.905 3.905 10.237 3.905 14.143 0 3.905-3.905 3.905-10.237 0-14.143l-14.302-14.302c15.07-16.47 27.402-34.895 36.792-54.97l18.642 7.722c5.101 2.114 10.953-.31 13.065-5.412 2.113-5.103-.31-10.952-5.412-13.065l-18.646-7.723c7.294-20.15 11.566-41.128 12.747-62.596 50.577 1.845 97.834 22.373 133.891 58.429 36.057 36.058 56.594 83.294 58.431 133.892-21.47 1.18-42.45 5.453-62.598 12.747z" id="svg_6" fill="#bd0760"/></g></g></svg>